# xmcd
#
# Track frame offsets: 
#        150
#        15987
#        28100
#        42675
#        60042
#        79180
#        92282
#        108422
#        123605
#        140302
#
# Disc length: 2108 seconds
#
# Revision: 4
# Processed by: cddbd v1.5.2PL0 Copyright (c) Steve Scherf et al.
# Submitted via: ExactAudioCopy v0.95a4
#
DISCID=74083a0a
DTITLE=The Judds - Greatest Hits
DYEAR=1988
DGENRE=Country
TTITLE0=Why Not Me
TTITLE1=Rockin' With the Rhythm Of The Rain
TTITLE2=Mama He's Crazy
TTITLE3=Give A Little Love
TTITLE4=Grandpa (Tell Me 'Bout The Good Old Days)
TTITLE5=Girls Night Out
TTITLE6=Change Of Heart
TTITLE7=Have Mercy
TTITLE8=Cry Myself To Sleep
TTITLE9=Love Is Alive
EXTD=Year: 1988\n\n\nMusic is the gift of life, this album is our gift
EXTD=to you\n\nwith Love and Thanks, \n\nWynonna and Naomi  (The Judds)
EXTT0=
EXTT1=
EXTT2=
EXTT3=
EXTT4=
EXTT5=
EXTT6=
EXTT7=
EXTT8=
EXTT9=
PLAYORDER=
